<?xml version="1.0" standalone="no"?>
<!DOCTYPE svg PUBLIC "-//W3C//DTD SVG 20010904//EN"
 "http://www.w3.org/TR/2001/REC-SVG-20010904/DTD/svg10.dtd">
<svg version="1.0" xmlns="http://www.w3.org/2000/svg"
 width="192.000000pt" height="192.000000pt" viewBox="0 0 192.000000 192.000000"
 preserveAspectRatio="xMidYMid meet">
<metadata>
Created by potrace 1.11, written by Peter Selinger 2001-2013
</metadata>
<g transform="translate(0.000000,192.000000) scale(0.100000,-0.100000)"
fill="#000000" stroke="none">
<path d="M908 1850 c-27 -17 -52 -30 -58 -30 -5 0 -10 -4 -10 -10 0 -5 -4 -10
-9 -10 -5 0 -92 -48 -193 -106 -100 -58 -249 -144 -331 -191 l-147 -86 2 -464
3 -465 46 -26 c26 -15 205 -118 398 -230 l351 -203 101 58 c55 32 117 67 137
79 21 11 111 64 202 116 91 53 208 121 260 151 l95 55 3 464 2 465 -282 163
c-156 89 -294 170 -308 179 -14 8 -34 21 -45 27 -62 33 -122 68 -140 80 -25
18 -22 19 -77 -16z"/>
</g>
</svg>
